<svg xmlns="http://www.w3.org/2000/svg" viewBox="0 0 1024 1024" width="1024" height="1024"><defs>
<linearGradient id="tile" x1="0.2" y1="0" x2="0.8" y2="1"><stop offset="0" stop-color="#4C5F9A"/><stop offset="0.55" stop-color="#2C3B72"/><stop offset="1" stop-color="#1A2455"/></linearGradient>
<radialGradient id="halo" cx="0.5" cy="0.5" r="0.5"><stop offset="0.5" stop-color="#BBD0FF" stop-opacity="0.34"/><stop offset="1" stop-color="#9DB4F2" stop-opacity="0"/></radialGradient>
<radialGradient id="base" cx="0.4" cy="0.36" r="0.75"><stop offset="0" stop-color="#3F5190" stop-opacity="0.55"/><stop offset="1" stop-color="#26346F" stop-opacity="0.35"/></radialGradient>
<linearGradient id="gloss" x1="0" y1="0" x2="0" y2="1"><stop offset="0" stop-color="#fff" stop-opacity="0.18"/><stop offset="0.5" stop-color="#fff" stop-opacity="0"/></linearGradient>
<filter id="glow" x="-20%" y="-20%" width="140%" height="140%"><feGaussianBlur stdDeviation="12"/></filter>
<clipPath id="tc"><rect x="100" y="100" width="824" height="824" rx="236"/></clipPath>
</defs><rect x="100" y="100" width="824" height="824" rx="236" fill="url(#tile)"/><g clip-path="url(#tc)"><rect x="100" y="100" width="824" height="412" fill="url(#gloss)"/></g><rect x="102" y="102" width="820" height="820" rx="234" fill="none" stroke="#fff" stroke-opacity="0.16" stroke-width="3"/><circle cx="512" cy="512" r="426" fill="url(#halo)"/><circle cx="512" cy="512" r="312" fill="url(#base)"/><g fill="#CFE0FF" filter="url(#glow)" opacity="0.75"><circle cx="392.0" cy="246.6" r="12.67" fill-opacity="0.90"/><circle cx="432.0" cy="246.6" r="15.10" fill-opacity="0.95"/><circle cx="472.0" cy="246.6" r="15.76" fill-opacity="0.96"/><circle cx="512.0" cy="246.6" r="15.59" fill-opacity="0.95"/><circle cx="552.0" cy="246.6" r="14.59" fill-opacity="0.92"/><circle cx="592.0" cy="246.6" r="12.41" fill-opacity="0.86"/><circle cx="632.0" cy="246.6" r="8.13" fill-opacity="0.75"/><circle cx="332.0" cy="281.3" r="12.49" fill-opacity="0.91"/><circle cx="372.0" cy="281.3" r="16.20" fill-opacity="0.97"/><circle cx="412.0" cy="281.3" r="17.13" fill-opacity="0.99"/><circle cx="452.0" cy="281.3" r="17.41" fill-opacity="0.99"/><circle cx="492.0" cy="281.3" r="17.44" fill-opacity="0.99"/><circle cx="532.0" cy="281.3" r="17.42" fill-opacity="0.98"/><circle cx="572.0" cy="281.3" r="16.66" fill-opacity="0.96"/><circle cx="612.0" cy="281.3" r="14.86" fill-opacity="0.91"/><circle cx="652.0" cy="281.3" r="11.57" fill-opacity="0.82"/><circle cx="692.0" cy="281.3" r="5.65" fill-opacity="0.66"/><circle cx="312.0" cy="315.9" r="15.14" fill-opacity="0.96"/><circle cx="352.0" cy="315.9" r="17.17" fill-opacity="0.99"/><circle cx="392.0" cy="315.9" r="17.26" fill-opacity="1.00"/><circle cx="432.0" cy="315.9" r="16.82" fill-opacity="1.00"/><circle cx="472.0" cy="315.9" r="15.82" fill-opacity="1.00"/><circle cx="512.0" cy="315.9" r="14.94" fill-opacity="1.00"/><circle cx="552.0" cy="315.9" r="17.84" fill-opacity="0.99"/><circle cx="592.0" cy="315.9" r="17.43" fill-opacity="0.97"/><circle cx="632.0" cy="315.9" r="15.74" fill-opacity="0.92"/><circle cx="672.0" cy="315.9" r="12.60" fill-opacity="0.84"/><circle cx="712.0" cy="315.9" r="7.44" fill-opacity="0.70"/><circle cx="292.0" cy="350.6" r="15.90" fill-opacity="0.97"/><circle cx="332.0" cy="350.6" r="17.48" fill-opacity="1.00"/><circle cx="372.0" cy="350.6" r="16.83" fill-opacity="1.00"/><circle cx="412.0" cy="350.6" r="15.10" fill-opacity="1.00"/><circle cx="452.0" cy="350.6" r="13.95" fill-opacity="1.00"/><circle cx="492.0" cy="350.6" r="12.13" fill-opacity="1.00"/><circle cx="532.0" cy="350.6" r="15.84" fill-opacity="1.00"/><circle cx="572.0" cy="350.6" r="17.99" fill-opacity="0.99"/><circle cx="612.0" cy="350.6" r="17.65" fill-opacity="0.96"/><circle cx="652.0" cy="350.6" r="15.77" fill-opacity="0.92"/><circle cx="692.0" cy="350.6" r="12.51" fill-opacity="0.83"/><circle cx="732.0" cy="350.6" r="7.39" fill-opacity="0.70"/><circle cx="272.0" cy="385.2" r="15.86" fill-opacity="0.96"/><circle cx="312.0" cy="385.2" r="17.68" fill-opacity="1.00"/><circle cx="352.0" cy="385.2" r="16.88" fill-opacity="1.00"/><circle cx="392.0" cy="385.2" r="14.04" fill-opacity="1.00"/><circle cx="432.0" cy="385.2" r="10.81" fill-opacity="1.00"/><circle cx="472.0" cy="385.2" r="10.30" fill-opacity="1.00"/><circle cx="512.0" cy="385.2" r="13.18" fill-opacity="1.00"/><circle cx="552.0" cy="385.2" r="16.61" fill-opacity="1.00"/><circle cx="592.0" cy="385.2" r="17.64" fill-opacity="0.98"/><circle cx="632.0" cy="385.2" r="8.86" fill-opacity="0.95"/><circle cx="672.0" cy="385.2" r="15.02" fill-opacity="0.90"/><circle cx="712.0" cy="385.2" r="11.59" fill-opacity="0.80"/><circle cx="752.0" cy="385.2" r="6.28" fill-opacity="0.66"/><circle cx="252.0" cy="419.8" r="14.98" fill-opacity="0.94"/><circle cx="292.0" cy="419.8" r="17.71" fill-opacity="0.99"/><circle cx="332.0" cy="419.8" r="17.55" fill-opacity="1.00"/><circle cx="372.0" cy="419.8" r="14.92" fill-opacity="1.00"/><circle cx="412.0" cy="419.8" r="10.48" fill-opacity="1.00"/><circle cx="452.0" cy="419.8" r="7.59" fill-opacity="1.00"/><circle cx="492.0" cy="419.8" r="9.33" fill-opacity="1.00"/><circle cx="532.0" cy="419.8" r="13.93" fill-opacity="1.00"/><circle cx="572.0" cy="419.8" r="15.36" fill-opacity="0.99"/><circle cx="612.0" cy="419.8" r="14.36" fill-opacity="0.97"/><circle cx="652.0" cy="419.8" r="14.91" fill-opacity="0.93"/><circle cx="692.0" cy="419.8" r="13.70" fill-opacity="0.86"/><circle cx="732.0" cy="419.8" r="9.93" fill-opacity="0.76"/><circle cx="772.0" cy="419.8" r="4.42" fill-opacity="0.60"/><circle cx="232.0" cy="454.5" r="12.67" fill-opacity="0.89"/><circle cx="272.0" cy="454.5" r="17.20" fill-opacity="0.98"/><circle cx="312.0" cy="454.5" r="18.16" fill-opacity="1.00"/><circle cx="352.0" cy="454.5" r="16.90" fill-opacity="1.00"/><circle cx="392.0" cy="454.5" r="13.41" fill-opacity="1.00"/><circle cx="432.0" cy="454.5" r="9.53" fill-opacity="1.00"/><circle cx="472.0" cy="454.5" r="8.89" fill-opacity="1.00"/><circle cx="512.0" cy="454.5" r="12.28" fill-opacity="1.00"/><circle cx="552.0" cy="454.5" r="13.51" fill-opacity="1.00"/><circle cx="592.0" cy="454.5" r="9.73" fill-opacity="0.98"/><circle cx="632.0" cy="454.5" r="11.28" fill-opacity="0.95"/><circle cx="672.0" cy="454.5" r="13.54" fill-opacity="0.90"/><circle cx="712.0" cy="454.5" r="11.95" fill-opacity="0.81"/><circle cx="752.0" cy="454.5" r="7.57" fill-opacity="0.69"/><circle cx="792.0" cy="454.5" r="2.59" fill-opacity="0.55"/><circle cx="252.0" cy="489.1" r="15.69" fill-opacity="0.94"/><circle cx="292.0" cy="489.1" r="17.99" fill-opacity="0.99"/><circle cx="332.0" cy="489.1" r="18.16" fill-opacity="1.00"/><circle cx="372.0" cy="489.1" r="16.69" fill-opacity="1.00"/><circle cx="412.0" cy="489.1" r="14.16" fill-opacity="1.00"/><circle cx="452.0" cy="489.1" r="12.44" fill-opacity="1.00"/><circle cx="492.0" cy="489.1" r="13.51" fill-opacity="1.00"/><circle cx="532.0" cy="489.1" r="15.33" fill-opacity="0.99"/><circle cx="572.0" cy="489.1" r="9.51" fill-opacity="0.98"/><circle cx="612.0" cy="489.1" r="8.27" fill-opacity="0.96"/><circle cx="652.0" cy="489.1" r="11.75" fill-opacity="0.91"/><circle cx="692.0" cy="489.1" r="12.60" fill-opacity="0.84"/><circle cx="732.0" cy="489.1" r="9.52" fill-opacity="0.74"/><circle cx="772.0" cy="489.1" r="4.69" fill-opacity="0.61"/><circle cx="232.0" cy="523.8" r="12.36" fill-opacity="0.86"/><circle cx="272.0" cy="523.8" r="16.70" fill-opacity="0.96"/><circle cx="312.0" cy="523.8" r="17.57" fill-opacity="0.99"/><circle cx="352.0" cy="523.8" r="14.20" fill-opacity="1.00"/><circle cx="392.0" cy="523.8" r="11.67" fill-opacity="1.00"/><circle cx="432.0" cy="523.8" r="16.23" fill-opacity="1.00"/><circle cx="472.0" cy="523.8" r="15.26" fill-opacity="1.00"/><circle cx="512.0" cy="523.8" r="13.68" fill-opacity="0.99"/><circle cx="552.0" cy="523.8" r="14.38" fill-opacity="0.98"/><circle cx="592.0" cy="523.8" r="11.13" fill-opacity="0.96"/><circle cx="632.0" cy="523.8" r="11.80" fill-opacity="0.92"/><circle cx="672.0" cy="523.8" r="12.72" fill-opacity="0.86"/><circle cx="712.0" cy="523.8" r="4.70" fill-opacity="0.77"/><circle cx="752.0" cy="523.8" r="6.35" fill-opacity="0.65"/><circle cx="792.0" cy="523.8" r="2.66" fill-opacity="0.55"/><circle cx="252.0" cy="558.4" r="13.84" fill-opacity="0.89"/><circle cx="292.0" cy="558.4" r="16.73" fill-opacity="0.95"/><circle cx="332.0" cy="558.4" r="15.89" fill-opacity="0.98"/><circle cx="372.0" cy="558.4" r="11.63" fill-opacity="0.99"/><circle cx="412.0" cy="558.4" r="13.12" fill-opacity="0.99"/><circle cx="452.0" cy="558.4" r="14.53" fill-opacity="0.99"/><circle cx="492.0" cy="558.4" r="10.78" fill-opacity="0.98"/><circle cx="532.0" cy="558.4" r="10.52" fill-opacity="0.97"/><circle cx="572.0" cy="558.4" r="13.40" fill-opacity="0.95"/><circle cx="612.0" cy="558.4" r="14.13" fill-opacity="0.91"/><circle cx="652.0" cy="558.4" r="12.91" fill-opacity="0.86"/><circle cx="692.0" cy="558.4" r="10.75" fill-opacity="0.78"/><circle cx="732.0" cy="558.4" r="7.23" fill-opacity="0.67"/><circle cx="772.0" cy="558.4" r="3.16" fill-opacity="0.56"/><circle cx="232.0" cy="593.1" r="7.72" fill-opacity="0.73"/><circle cx="272.0" cy="593.1" r="13.99" fill-opacity="0.88"/><circle cx="312.0" cy="593.1" r="16.25" fill-opacity="0.94"/><circle cx="352.0" cy="593.1" r="15.93" fill-opacity="0.96"/><circle cx="392.0" cy="593.1" r="15.40" fill-opacity="0.97"/><circle cx="432.0" cy="593.1" r="15.70" fill-opacity="0.97"/><circle cx="472.0" cy="593.1" r="11.74" fill-opacity="0.97"/><circle cx="512.0" cy="593.1" r="9.32" fill-opacity="0.95"/><circle cx="552.0" cy="593.1" r="10.93" fill-opacity="0.93"/><circle cx="592.0" cy="593.1" r="13.38" fill-opacity="0.90"/><circle cx="632.0" cy="593.1" r="9.77" fill-opacity="0.85"/><circle cx="672.0" cy="593.1" r="8.03" fill-opacity="0.77"/><circle cx="712.0" cy="593.1" r="7.08" fill-opacity="0.68"/><circle cx="752.0" cy="593.1" r="3.63" fill-opacity="0.57"/><circle cx="792.0" cy="593.1" r="2.47" fill-opacity="0.55"/><circle cx="252.0" cy="627.7" r="8.33" fill-opacity="0.74"/><circle cx="292.0" cy="627.7" r="13.26" fill-opacity="0.86"/><circle cx="332.0" cy="627.7" r="15.46" fill-opacity="0.91"/><circle cx="372.0" cy="627.7" r="16.36" fill-opacity="0.93"/><circle cx="412.0" cy="627.7" r="16.29" fill-opacity="0.94"/><circle cx="452.0" cy="627.7" r="14.29" fill-opacity="0.94"/><circle cx="492.0" cy="627.7" r="11.77" fill-opacity="0.93"/><circle cx="532.0" cy="627.7" r="11.22" fill-opacity="0.91"/><circle cx="572.0" cy="627.7" r="12.27" fill-opacity="0.87"/><circle cx="612.0" cy="627.7" r="10.45" fill-opacity="0.82"/><circle cx="652.0" cy="627.7" r="6.33" fill-opacity="0.75"/><circle cx="692.0" cy="627.7" r="5.93" fill-opacity="0.67"/><circle cx="732.0" cy="627.7" r="3.61" fill-opacity="0.57"/><circle cx="772.0" cy="627.7" r="2.60" fill-opacity="0.55"/><circle cx="272.0" cy="662.3" r="7.32" fill-opacity="0.70"/><circle cx="312.0" cy="662.3" r="11.70" fill-opacity="0.81"/><circle cx="352.0" cy="662.3" r="13.85" fill-opacity="0.86"/><circle cx="392.0" cy="662.3" r="14.77" fill-opacity="0.88"/><circle cx="432.0" cy="662.3" r="14.59" fill-opacity="0.89"/><circle cx="472.0" cy="662.3" r="13.48" fill-opacity="0.88"/><circle cx="512.0" cy="662.3" r="12.37" fill-opacity="0.86"/><circle cx="552.0" cy="662.3" r="6.96" fill-opacity="0.83"/><circle cx="592.0" cy="662.3" r="10.97" fill-opacity="0.78"/><circle cx="632.0" cy="662.3" r="8.05" fill-opacity="0.72"/><circle cx="672.0" cy="662.3" r="5.52" fill-opacity="0.64"/><circle cx="712.0" cy="662.3" r="3.21" fill-opacity="0.56"/><circle cx="752.0" cy="662.3" r="2.62" fill-opacity="0.55"/><circle cx="292.0" cy="697.0" r="5.13" fill-opacity="0.64"/><circle cx="332.0" cy="697.0" r="9.24" fill-opacity="0.74"/><circle cx="372.0" cy="697.0" r="11.28" fill-opacity="0.79"/><circle cx="412.0" cy="697.0" r="12.17" fill-opacity="0.81"/><circle cx="452.0" cy="697.0" r="12.18" fill-opacity="0.82"/><circle cx="492.0" cy="697.0" r="11.55" fill-opacity="0.80"/><circle cx="532.0" cy="697.0" r="10.59" fill-opacity="0.77"/><circle cx="572.0" cy="697.0" r="9.24" fill-opacity="0.73"/><circle cx="612.0" cy="697.0" r="7.27" fill-opacity="0.67"/><circle cx="652.0" cy="697.0" r="4.74" fill-opacity="0.60"/><circle cx="692.0" cy="697.0" r="2.82" fill-opacity="0.55"/><circle cx="732.0" cy="697.0" r="2.55" fill-opacity="0.55"/><circle cx="352.0" cy="731.6" r="5.90" fill-opacity="0.65"/><circle cx="392.0" cy="731.6" r="7.83" fill-opacity="0.70"/><circle cx="432.0" cy="731.6" r="8.63" fill-opacity="0.72"/><circle cx="472.0" cy="731.6" r="8.60" fill-opacity="0.71"/><circle cx="512.0" cy="731.6" r="7.93" fill-opacity="0.69"/><circle cx="552.0" cy="731.6" r="6.70" fill-opacity="0.66"/><circle cx="592.0" cy="731.6" r="5.02" fill-opacity="0.61"/><circle cx="632.0" cy="731.6" r="3.24" fill-opacity="0.56"/><circle cx="672.0" cy="731.6" r="2.74" fill-opacity="0.55"/><circle cx="372.0" cy="766.3" r="2.51" fill-opacity="0.55"/><circle cx="412.0" cy="766.3" r="3.83" fill-opacity="0.58"/><circle cx="452.0" cy="766.3" r="4.44" fill-opacity="0.60"/><circle cx="492.0" cy="766.3" r="4.33" fill-opacity="0.59"/><circle cx="532.0" cy="766.3" r="3.68" fill-opacity="0.58"/><circle cx="572.0" cy="766.3" r="2.88" fill-opacity="0.55"/><circle cx="612.0" cy="766.3" r="2.73" fill-opacity="0.55"/><circle cx="652.0" cy="766.3" r="2.50" fill-opacity="0.55"/><circle cx="472.0" cy="800.9" r="2.46" fill-opacity="0.55"/><circle cx="512.0" cy="800.9" r="2.53" fill-opacity="0.55"/><circle cx="552.0" cy="800.9" r="2.46" fill-opacity="0.55"/></g><g fill="#F6F9FF"><circle cx="392.0" cy="246.6" r="12.67" fill-opacity="0.90"/><circle cx="432.0" cy="246.6" r="15.10" fill-opacity="0.95"/><circle cx="472.0" cy="246.6" r="15.76" fill-opacity="0.96"/><circle cx="512.0" cy="246.6" r="15.59" fill-opacity="0.95"/><circle cx="552.0" cy="246.6" r="14.59" fill-opacity="0.92"/><circle cx="592.0" cy="246.6" r="12.41" fill-opacity="0.86"/><circle cx="632.0" cy="246.6" r="8.13" fill-opacity="0.75"/><circle cx="332.0" cy="281.3" r="12.49" fill-opacity="0.91"/><circle cx="372.0" cy="281.3" r="16.20" fill-opacity="0.97"/><circle cx="412.0" cy="281.3" r="17.13" fill-opacity="0.99"/><circle cx="452.0" cy="281.3" r="17.41" fill-opacity="0.99"/><circle cx="492.0" cy="281.3" r="17.44" fill-opacity="0.99"/><circle cx="532.0" cy="281.3" r="17.42" fill-opacity="0.98"/><circle cx="572.0" cy="281.3" r="16.66" fill-opacity="0.96"/><circle cx="612.0" cy="281.3" r="14.86" fill-opacity="0.91"/><circle cx="652.0" cy="281.3" r="11.57" fill-opacity="0.82"/><circle cx="692.0" cy="281.3" r="5.65" fill-opacity="0.66"/><circle cx="312.0" cy="315.9" r="15.14" fill-opacity="0.96"/><circle cx="352.0" cy="315.9" r="17.17" fill-opacity="0.99"/><circle cx="392.0" cy="315.9" r="17.26" fill-opacity="1.00"/><circle cx="432.0" cy="315.9" r="16.82" fill-opacity="1.00"/><circle cx="472.0" cy="315.9" r="15.82" fill-opacity="1.00"/><circle cx="512.0" cy="315.9" r="14.94" fill-opacity="1.00"/><circle cx="552.0" cy="315.9" r="17.84" fill-opacity="0.99"/><circle cx="592.0" cy="315.9" r="17.43" fill-opacity="0.97"/><circle cx="632.0" cy="315.9" r="15.74" fill-opacity="0.92"/><circle cx="672.0" cy="315.9" r="12.60" fill-opacity="0.84"/><circle cx="712.0" cy="315.9" r="7.44" fill-opacity="0.70"/><circle cx="292.0" cy="350.6" r="15.90" fill-opacity="0.97"/><circle cx="332.0" cy="350.6" r="17.48" fill-opacity="1.00"/><circle cx="372.0" cy="350.6" r="16.83" fill-opacity="1.00"/><circle cx="412.0" cy="350.6" r="15.10" fill-opacity="1.00"/><circle cx="452.0" cy="350.6" r="13.95" fill-opacity="1.00"/><circle cx="492.0" cy="350.6" r="12.13" fill-opacity="1.00"/><circle cx="532.0" cy="350.6" r="15.84" fill-opacity="1.00"/><circle cx="572.0" cy="350.6" r="17.99" fill-opacity="0.99"/><circle cx="612.0" cy="350.6" r="17.65" fill-opacity="0.96"/><circle cx="652.0" cy="350.6" r="15.77" fill-opacity="0.92"/><circle cx="692.0" cy="350.6" r="12.51" fill-opacity="0.83"/><circle cx="732.0" cy="350.6" r="7.39" fill-opacity="0.70"/><circle cx="272.0" cy="385.2" r="15.86" fill-opacity="0.96"/><circle cx="312.0" cy="385.2" r="17.68" fill-opacity="1.00"/><circle cx="352.0" cy="385.2" r="16.88" fill-opacity="1.00"/><circle cx="392.0" cy="385.2" r="14.04" fill-opacity="1.00"/><circle cx="432.0" cy="385.2" r="10.81" fill-opacity="1.00"/><circle cx="472.0" cy="385.2" r="10.30" fill-opacity="1.00"/><circle cx="512.0" cy="385.2" r="13.18" fill-opacity="1.00"/><circle cx="552.0" cy="385.2" r="16.61" fill-opacity="1.00"/><circle cx="592.0" cy="385.2" r="17.64" fill-opacity="0.98"/><circle cx="632.0" cy="385.2" r="8.86" fill-opacity="0.95"/><circle cx="672.0" cy="385.2" r="15.02" fill-opacity="0.90"/><circle cx="712.0" cy="385.2" r="11.59" fill-opacity="0.80"/><circle cx="752.0" cy="385.2" r="6.28" fill-opacity="0.66"/><circle cx="252.0" cy="419.8" r="14.98" fill-opacity="0.94"/><circle cx="292.0" cy="419.8" r="17.71" fill-opacity="0.99"/><circle cx="332.0" cy="419.8" r="17.55" fill-opacity="1.00"/><circle cx="372.0" cy="419.8" r="14.92" fill-opacity="1.00"/><circle cx="412.0" cy="419.8" r="10.48" fill-opacity="1.00"/><circle cx="452.0" cy="419.8" r="7.59" fill-opacity="1.00"/><circle cx="492.0" cy="419.8" r="9.33" fill-opacity="1.00"/><circle cx="532.0" cy="419.8" r="13.93" fill-opacity="1.00"/><circle cx="572.0" cy="419.8" r="15.36" fill-opacity="0.99"/><circle cx="612.0" cy="419.8" r="14.36" fill-opacity="0.97"/><circle cx="652.0" cy="419.8" r="14.91" fill-opacity="0.93"/><circle cx="692.0" cy="419.8" r="13.70" fill-opacity="0.86"/><circle cx="732.0" cy="419.8" r="9.93" fill-opacity="0.76"/><circle cx="772.0" cy="419.8" r="4.42" fill-opacity="0.60"/><circle cx="232.0" cy="454.5" r="12.67" fill-opacity="0.89"/><circle cx="272.0" cy="454.5" r="17.20" fill-opacity="0.98"/><circle cx="312.0" cy="454.5" r="18.16" fill-opacity="1.00"/><circle cx="352.0" cy="454.5" r="16.90" fill-opacity="1.00"/><circle cx="392.0" cy="454.5" r="13.41" fill-opacity="1.00"/><circle cx="432.0" cy="454.5" r="9.53" fill-opacity="1.00"/><circle cx="472.0" cy="454.5" r="8.89" fill-opacity="1.00"/><circle cx="512.0" cy="454.5" r="12.28" fill-opacity="1.00"/><circle cx="552.0" cy="454.5" r="13.51" fill-opacity="1.00"/><circle cx="592.0" cy="454.5" r="9.73" fill-opacity="0.98"/><circle cx="632.0" cy="454.5" r="11.28" fill-opacity="0.95"/><circle cx="672.0" cy="454.5" r="13.54" fill-opacity="0.90"/><circle cx="712.0" cy="454.5" r="11.95" fill-opacity="0.81"/><circle cx="752.0" cy="454.5" r="7.57" fill-opacity="0.69"/><circle cx="792.0" cy="454.5" r="2.59" fill-opacity="0.55"/><circle cx="252.0" cy="489.1" r="15.69" fill-opacity="0.94"/><circle cx="292.0" cy="489.1" r="17.99" fill-opacity="0.99"/><circle cx="332.0" cy="489.1" r="18.16" fill-opacity="1.00"/><circle cx="372.0" cy="489.1" r="16.69" fill-opacity="1.00"/><circle cx="412.0" cy="489.1" r="14.16" fill-opacity="1.00"/><circle cx="452.0" cy="489.1" r="12.44" fill-opacity="1.00"/><circle cx="492.0" cy="489.1" r="13.51" fill-opacity="1.00"/><circle cx="532.0" cy="489.1" r="15.33" fill-opacity="0.99"/><circle cx="572.0" cy="489.1" r="9.51" fill-opacity="0.98"/><circle cx="612.0" cy="489.1" r="8.27" fill-opacity="0.96"/><circle cx="652.0" cy="489.1" r="11.75" fill-opacity="0.91"/><circle cx="692.0" cy="489.1" r="12.60" fill-opacity="0.84"/><circle cx="732.0" cy="489.1" r="9.52" fill-opacity="0.74"/><circle cx="772.0" cy="489.1" r="4.69" fill-opacity="0.61"/><circle cx="232.0" cy="523.8" r="12.36" fill-opacity="0.86"/><circle cx="272.0" cy="523.8" r="16.70" fill-opacity="0.96"/><circle cx="312.0" cy="523.8" r="17.57" fill-opacity="0.99"/><circle cx="352.0" cy="523.8" r="14.20" fill-opacity="1.00"/><circle cx="392.0" cy="523.8" r="11.67" fill-opacity="1.00"/><circle cx="432.0" cy="523.8" r="16.23" fill-opacity="1.00"/><circle cx="472.0" cy="523.8" r="15.26" fill-opacity="1.00"/><circle cx="512.0" cy="523.8" r="13.68" fill-opacity="0.99"/><circle cx="552.0" cy="523.8" r="14.38" fill-opacity="0.98"/><circle cx="592.0" cy="523.8" r="11.13" fill-opacity="0.96"/><circle cx="632.0" cy="523.8" r="11.80" fill-opacity="0.92"/><circle cx="672.0" cy="523.8" r="12.72" fill-opacity="0.86"/><circle cx="712.0" cy="523.8" r="4.70" fill-opacity="0.77"/><circle cx="752.0" cy="523.8" r="6.35" fill-opacity="0.65"/><circle cx="792.0" cy="523.8" r="2.66" fill-opacity="0.55"/><circle cx="252.0" cy="558.4" r="13.84" fill-opacity="0.89"/><circle cx="292.0" cy="558.4" r="16.73" fill-opacity="0.95"/><circle cx="332.0" cy="558.4" r="15.89" fill-opacity="0.98"/><circle cx="372.0" cy="558.4" r="11.63" fill-opacity="0.99"/><circle cx="412.0" cy="558.4" r="13.12" fill-opacity="0.99"/><circle cx="452.0" cy="558.4" r="14.53" fill-opacity="0.99"/><circle cx="492.0" cy="558.4" r="10.78" fill-opacity="0.98"/><circle cx="532.0" cy="558.4" r="10.52" fill-opacity="0.97"/><circle cx="572.0" cy="558.4" r="13.40" fill-opacity="0.95"/><circle cx="612.0" cy="558.4" r="14.13" fill-opacity="0.91"/><circle cx="652.0" cy="558.4" r="12.91" fill-opacity="0.86"/><circle cx="692.0" cy="558.4" r="10.75" fill-opacity="0.78"/><circle cx="732.0" cy="558.4" r="7.23" fill-opacity="0.67"/><circle cx="772.0" cy="558.4" r="3.16" fill-opacity="0.56"/><circle cx="232.0" cy="593.1" r="7.72" fill-opacity="0.73"/><circle cx="272.0" cy="593.1" r="13.99" fill-opacity="0.88"/><circle cx="312.0" cy="593.1" r="16.25" fill-opacity="0.94"/><circle cx="352.0" cy="593.1" r="15.93" fill-opacity="0.96"/><circle cx="392.0" cy="593.1" r="15.40" fill-opacity="0.97"/><circle cx="432.0" cy="593.1" r="15.70" fill-opacity="0.97"/><circle cx="472.0" cy="593.1" r="11.74" fill-opacity="0.97"/><circle cx="512.0" cy="593.1" r="9.32" fill-opacity="0.95"/><circle cx="552.0" cy="593.1" r="10.93" fill-opacity="0.93"/><circle cx="592.0" cy="593.1" r="13.38" fill-opacity="0.90"/><circle cx="632.0" cy="593.1" r="9.77" fill-opacity="0.85"/><circle cx="672.0" cy="593.1" r="8.03" fill-opacity="0.77"/><circle cx="712.0" cy="593.1" r="7.08" fill-opacity="0.68"/><circle cx="752.0" cy="593.1" r="3.63" fill-opacity="0.57"/><circle cx="792.0" cy="593.1" r="2.47" fill-opacity="0.55"/><circle cx="252.0" cy="627.7" r="8.33" fill-opacity="0.74"/><circle cx="292.0" cy="627.7" r="13.26" fill-opacity="0.86"/><circle cx="332.0" cy="627.7" r="15.46" fill-opacity="0.91"/><circle cx="372.0" cy="627.7" r="16.36" fill-opacity="0.93"/><circle cx="412.0" cy="627.7" r="16.29" fill-opacity="0.94"/><circle cx="452.0" cy="627.7" r="14.29" fill-opacity="0.94"/><circle cx="492.0" cy="627.7" r="11.77" fill-opacity="0.93"/><circle cx="532.0" cy="627.7" r="11.22" fill-opacity="0.91"/><circle cx="572.0" cy="627.7" r="12.27" fill-opacity="0.87"/><circle cx="612.0" cy="627.7" r="10.45" fill-opacity="0.82"/><circle cx="652.0" cy="627.7" r="6.33" fill-opacity="0.75"/><circle cx="692.0" cy="627.7" r="5.93" fill-opacity="0.67"/><circle cx="732.0" cy="627.7" r="3.61" fill-opacity="0.57"/><circle cx="772.0" cy="627.7" r="2.60" fill-opacity="0.55"/><circle cx="272.0" cy="662.3" r="7.32" fill-opacity="0.70"/><circle cx="312.0" cy="662.3" r="11.70" fill-opacity="0.81"/><circle cx="352.0" cy="662.3" r="13.85" fill-opacity="0.86"/><circle cx="392.0" cy="662.3" r="14.77" fill-opacity="0.88"/><circle cx="432.0" cy="662.3" r="14.59" fill-opacity="0.89"/><circle cx="472.0" cy="662.3" r="13.48" fill-opacity="0.88"/><circle cx="512.0" cy="662.3" r="12.37" fill-opacity="0.86"/><circle cx="552.0" cy="662.3" r="6.96" fill-opacity="0.83"/><circle cx="592.0" cy="662.3" r="10.97" fill-opacity="0.78"/><circle cx="632.0" cy="662.3" r="8.05" fill-opacity="0.72"/><circle cx="672.0" cy="662.3" r="5.52" fill-opacity="0.64"/><circle cx="712.0" cy="662.3" r="3.21" fill-opacity="0.56"/><circle cx="752.0" cy="662.3" r="2.62" fill-opacity="0.55"/><circle cx="292.0" cy="697.0" r="5.13" fill-opacity="0.64"/><circle cx="332.0" cy="697.0" r="9.24" fill-opacity="0.74"/><circle cx="372.0" cy="697.0" r="11.28" fill-opacity="0.79"/><circle cx="412.0" cy="697.0" r="12.17" fill-opacity="0.81"/><circle cx="452.0" cy="697.0" r="12.18" fill-opacity="0.82"/><circle cx="492.0" cy="697.0" r="11.55" fill-opacity="0.80"/><circle cx="532.0" cy="697.0" r="10.59" fill-opacity="0.77"/><circle cx="572.0" cy="697.0" r="9.24" fill-opacity="0.73"/><circle cx="612.0" cy="697.0" r="7.27" fill-opacity="0.67"/><circle cx="652.0" cy="697.0" r="4.74" fill-opacity="0.60"/><circle cx="692.0" cy="697.0" r="2.82" fill-opacity="0.55"/><circle cx="732.0" cy="697.0" r="2.55" fill-opacity="0.55"/><circle cx="352.0" cy="731.6" r="5.90" fill-opacity="0.65"/><circle cx="392.0" cy="731.6" r="7.83" fill-opacity="0.70"/><circle cx="432.0" cy="731.6" r="8.63" fill-opacity="0.72"/><circle cx="472.0" cy="731.6" r="8.60" fill-opacity="0.71"/><circle cx="512.0" cy="731.6" r="7.93" fill-opacity="0.69"/><circle cx="552.0" cy="731.6" r="6.70" fill-opacity="0.66"/><circle cx="592.0" cy="731.6" r="5.02" fill-opacity="0.61"/><circle cx="632.0" cy="731.6" r="3.24" fill-opacity="0.56"/><circle cx="672.0" cy="731.6" r="2.74" fill-opacity="0.55"/><circle cx="372.0" cy="766.3" r="2.51" fill-opacity="0.55"/><circle cx="412.0" cy="766.3" r="3.83" fill-opacity="0.58"/><circle cx="452.0" cy="766.3" r="4.44" fill-opacity="0.60"/><circle cx="492.0" cy="766.3" r="4.33" fill-opacity="0.59"/><circle cx="532.0" cy="766.3" r="3.68" fill-opacity="0.58"/><circle cx="572.0" cy="766.3" r="2.88" fill-opacity="0.55"/><circle cx="612.0" cy="766.3" r="2.73" fill-opacity="0.55"/><circle cx="652.0" cy="766.3" r="2.50" fill-opacity="0.55"/><circle cx="472.0" cy="800.9" r="2.46" fill-opacity="0.55"/><circle cx="512.0" cy="800.9" r="2.53" fill-opacity="0.55"/><circle cx="552.0" cy="800.9" r="2.46" fill-opacity="0.55"/></g></svg>